<mxfile host="Electron" agent="Mozilla/5.0 (Windows NT 10.0; Win64; x64) AppleWebKit/537.36 (KHTML, like Gecko) draw.io/26.0.16 Chrome/132.0.6834.196 Electron/34.2.0 Safari/537.36" version="26.0.16">
  <diagram name="Page-1" id="58cdce13-f638-feb5-8d6f-7d28b1aa9fa0">
    <mxGraphModel dx="819" dy="1328" grid="1" gridSize="10" guides="1" tooltips="1" connect="1" arrows="1" fold="1" page="1" pageScale="1" pageWidth="1100" pageHeight="850" background="none" math="0" shadow="0">
      <root>
        <mxCell id="0" />
        <mxCell id="1" parent="0" />
        <mxCell id="382b91b5511bd0f7-1" value="" style="ellipse;html=1;shape=startState;fillColor=#000000;strokeColor=#ff0000;rounded=1;shadow=0;comic=0;labelBackgroundColor=none;fontFamily=Verdana;fontSize=12;fontColor=#000000;align=center;direction=south;" parent="1" vertex="1">
          <mxGeometry x="130" y="135" width="30" height="30" as="geometry" />
        </mxCell>
        <mxCell id="382b91b5511bd0f7-6" value="Создан" style="rounded=1;whiteSpace=wrap;html=1;arcSize=24;fillColor=#ffffc0;strokeColor=#ff0000;shadow=0;comic=0;labelBackgroundColor=none;fontFamily=Verdana;fontSize=12;fontColor=#000000;align=center;" parent="1" vertex="1">
          <mxGeometry x="240" y="120" width="120" height="60" as="geometry" />
        </mxCell>
        <mxCell id="2a3bc250acf0617d-9" style="edgeStyle=orthogonalEdgeStyle;html=1;labelBackgroundColor=none;endArrow=open;endSize=8;strokeColor=#ff0000;fontFamily=Verdana;fontSize=12;align=left;" parent="1" source="382b91b5511bd0f7-1" target="382b91b5511bd0f7-6" edge="1">
          <mxGeometry relative="1" as="geometry" />
        </mxCell>
        <mxCell id="LFXLNwLVuVDGuN5qB1EF-1" value="Подтверждён" style="rounded=1;whiteSpace=wrap;html=1;arcSize=24;fillColor=#ffffc0;strokeColor=#ff0000;shadow=0;comic=0;labelBackgroundColor=none;fontFamily=Verdana;fontSize=12;fontColor=#000000;align=center;" parent="1" vertex="1">
          <mxGeometry x="520" y="120" width="120" height="60" as="geometry" />
        </mxCell>
        <mxCell id="LFXLNwLVuVDGuN5qB1EF-3" value="" style="endArrow=open;html=1;rounded=1;strokeColor=#FF3333;endFill=0;edgeStyle=orthogonalEdgeStyle;exitX=1;exitY=0.5;exitDx=0;exitDy=0;entryX=0;entryY=0.5;entryDx=0;entryDy=0;curved=0;" parent="1" source="382b91b5511bd0f7-6" target="LFXLNwLVuVDGuN5qB1EF-1" edge="1">
          <mxGeometry relative="1" as="geometry">
            <mxPoint x="390" y="220" as="sourcePoint" />
            <mxPoint x="510" y="230" as="targetPoint" />
            <Array as="points">
              <mxPoint x="450" y="150" />
              <mxPoint x="450" y="150" />
            </Array>
          </mxGeometry>
        </mxCell>
        <mxCell id="LFXLNwLVuVDGuN5qB1EF-4" value="Менеджер проверил&lt;br&gt;и подтвердил заказ" style="edgeLabel;resizable=0;html=1;;align=center;verticalAlign=middle;labelBackgroundColor=none;" parent="LFXLNwLVuVDGuN5qB1EF-3" connectable="0" vertex="1">
          <mxGeometry relative="1" as="geometry">
            <mxPoint y="-15" as="offset" />
          </mxGeometry>
        </mxCell>
        <mxCell id="LFXLNwLVuVDGuN5qB1EF-6" value="Ожидает оплаты" style="rounded=1;whiteSpace=wrap;html=1;arcSize=24;fillColor=#ffffc0;strokeColor=#ff0000;shadow=0;comic=0;labelBackgroundColor=none;fontFamily=Verdana;fontSize=12;fontColor=#000000;align=center;" parent="1" vertex="1">
          <mxGeometry x="800" y="120" width="120" height="60" as="geometry" />
        </mxCell>
        <mxCell id="LFXLNwLVuVDGuN5qB1EF-7" value="" style="endArrow=open;html=1;rounded=1;strokeColor=#FF3333;endFill=0;edgeStyle=orthogonalEdgeStyle;entryX=0;entryY=0.5;entryDx=0;entryDy=0;curved=0;exitX=1;exitY=0.5;exitDx=0;exitDy=0;" parent="1" source="LFXLNwLVuVDGuN5qB1EF-1" target="LFXLNwLVuVDGuN5qB1EF-6" edge="1">
          <mxGeometry relative="1" as="geometry">
            <mxPoint x="690" y="220" as="sourcePoint" />
            <mxPoint x="750" y="230" as="targetPoint" />
            <Array as="points" />
          </mxGeometry>
        </mxCell>
        <mxCell id="LFXLNwLVuVDGuN5qB1EF-8" value="Подтвержденный заказ&lt;br&gt;ожидает оплаты" style="edgeLabel;resizable=0;html=1;;align=center;verticalAlign=middle;labelBackgroundColor=none;" parent="LFXLNwLVuVDGuN5qB1EF-7" connectable="0" vertex="1">
          <mxGeometry relative="1" as="geometry">
            <mxPoint y="-15" as="offset" />
          </mxGeometry>
        </mxCell>
        <mxCell id="LFXLNwLVuVDGuN5qB1EF-9" value="Отменён" style="rounded=1;whiteSpace=wrap;html=1;arcSize=24;fillColor=#ffffc0;strokeColor=#ff0000;shadow=0;comic=0;labelBackgroundColor=none;fontFamily=Verdana;fontSize=12;fontColor=#000000;align=center;" parent="1" vertex="1">
          <mxGeometry x="240" y="-20" width="120" height="60" as="geometry" />
        </mxCell>
        <mxCell id="LFXLNwLVuVDGuN5qB1EF-11" value="" style="endArrow=open;html=1;rounded=1;strokeColor=#FF3333;endFill=0;edgeStyle=orthogonalEdgeStyle;exitX=0.5;exitY=0;exitDx=0;exitDy=0;entryX=0.5;entryY=1;entryDx=0;entryDy=0;curved=0;" parent="1" source="382b91b5511bd0f7-6" target="LFXLNwLVuVDGuN5qB1EF-9" edge="1">
          <mxGeometry relative="1" as="geometry">
            <mxPoint x="370" y="210" as="sourcePoint" />
            <mxPoint x="530" y="210" as="targetPoint" />
            <Array as="points" />
          </mxGeometry>
        </mxCell>
        <mxCell id="LFXLNwLVuVDGuN5qB1EF-12" value="Пользователь отменил&lt;br&gt;заказ до его оплаты&lt;br&gt;или менеджер отменил&lt;br&gt;заказ" style="edgeLabel;resizable=0;html=1;;align=center;verticalAlign=middle;labelBackgroundColor=none;" parent="LFXLNwLVuVDGuN5qB1EF-11" connectable="0" vertex="1">
          <mxGeometry relative="1" as="geometry">
            <mxPoint x="-70" as="offset" />
          </mxGeometry>
        </mxCell>
        <mxCell id="LFXLNwLVuVDGuN5qB1EF-13" value="Отменён" style="rounded=1;whiteSpace=wrap;html=1;arcSize=24;fillColor=#ffffc0;strokeColor=#ff0000;shadow=0;comic=0;labelBackgroundColor=none;fontFamily=Verdana;fontSize=12;fontColor=#000000;align=center;" parent="1" vertex="1">
          <mxGeometry x="520" y="-20" width="120" height="60" as="geometry" />
        </mxCell>
        <mxCell id="LFXLNwLVuVDGuN5qB1EF-14" value="" style="endArrow=open;html=1;rounded=1;strokeColor=#FF3333;endFill=0;edgeStyle=orthogonalEdgeStyle;exitX=0.5;exitY=0;exitDx=0;exitDy=0;entryX=0.5;entryY=1;entryDx=0;entryDy=0;curved=0;" parent="1" target="LFXLNwLVuVDGuN5qB1EF-13" edge="1">
          <mxGeometry relative="1" as="geometry">
            <mxPoint x="580" y="120" as="sourcePoint" />
            <mxPoint x="810" y="210" as="targetPoint" />
            <Array as="points" />
          </mxGeometry>
        </mxCell>
        <mxCell id="LFXLNwLVuVDGuN5qB1EF-15" value="Пользователь отменил&lt;br&gt;заказ до его оплаты" style="edgeLabel;resizable=0;html=1;;align=center;verticalAlign=middle;labelBackgroundColor=none;" parent="LFXLNwLVuVDGuN5qB1EF-14" connectable="0" vertex="1">
          <mxGeometry relative="1" as="geometry">
            <mxPoint x="60" as="offset" />
          </mxGeometry>
        </mxCell>
        <mxCell id="LFXLNwLVuVDGuN5qB1EF-16" value="Оплачен" style="rounded=1;whiteSpace=wrap;html=1;arcSize=24;fillColor=#ffffc0;strokeColor=#ff0000;shadow=0;comic=0;labelBackgroundColor=none;fontFamily=Verdana;fontSize=12;fontColor=#000000;align=center;" parent="1" vertex="1">
          <mxGeometry x="800" y="260" width="120" height="60" as="geometry" />
        </mxCell>
        <mxCell id="LFXLNwLVuVDGuN5qB1EF-17" value="" style="endArrow=open;html=1;rounded=1;strokeColor=#FF3333;endFill=0;edgeStyle=orthogonalEdgeStyle;exitX=0.5;exitY=1;exitDx=0;exitDy=0;entryX=0.5;entryY=0;entryDx=0;entryDy=0;curved=0;" parent="1" source="LFXLNwLVuVDGuN5qB1EF-6" target="LFXLNwLVuVDGuN5qB1EF-16" edge="1">
          <mxGeometry relative="1" as="geometry">
            <mxPoint x="650" y="330" as="sourcePoint" />
            <mxPoint x="650" y="250" as="targetPoint" />
            <Array as="points" />
          </mxGeometry>
        </mxCell>
        <mxCell id="LFXLNwLVuVDGuN5qB1EF-18" value="Пользователь оплатил&lt;br&gt;заказ" style="edgeLabel;resizable=0;html=1;;align=center;verticalAlign=middle;labelBackgroundColor=none;" parent="LFXLNwLVuVDGuN5qB1EF-17" connectable="0" vertex="1">
          <mxGeometry relative="1" as="geometry">
            <mxPoint x="60" as="offset" />
          </mxGeometry>
        </mxCell>
        <mxCell id="gGHkiygS4o6kzGzx52wJ-1" value="Собирается" style="rounded=1;whiteSpace=wrap;html=1;arcSize=24;fillColor=#ffffc0;strokeColor=#ff0000;shadow=0;comic=0;labelBackgroundColor=none;fontFamily=Verdana;fontSize=12;fontColor=#000000;align=center;" parent="1" vertex="1">
          <mxGeometry x="520" y="260" width="120" height="60" as="geometry" />
        </mxCell>
        <mxCell id="gGHkiygS4o6kzGzx52wJ-2" value="Собран" style="rounded=1;whiteSpace=wrap;html=1;arcSize=24;fillColor=#ffffc0;strokeColor=#ff0000;shadow=0;comic=0;labelBackgroundColor=none;fontFamily=Verdana;fontSize=12;fontColor=#000000;align=center;" parent="1" vertex="1">
          <mxGeometry x="240" y="260" width="120" height="60" as="geometry" />
        </mxCell>
        <mxCell id="gGHkiygS4o6kzGzx52wJ-3" value="В пути" style="rounded=1;whiteSpace=wrap;html=1;arcSize=24;fillColor=#ffffc0;strokeColor=#ff0000;shadow=0;comic=0;labelBackgroundColor=none;fontFamily=Verdana;fontSize=12;fontColor=#000000;align=center;" parent="1" vertex="1">
          <mxGeometry x="240" y="400" width="120" height="60" as="geometry" />
        </mxCell>
        <mxCell id="gGHkiygS4o6kzGzx52wJ-4" value="Готов к выдаче" style="rounded=1;whiteSpace=wrap;html=1;arcSize=24;fillColor=#ffffc0;strokeColor=#ff0000;shadow=0;comic=0;labelBackgroundColor=none;fontFamily=Verdana;fontSize=12;fontColor=#000000;align=center;" parent="1" vertex="1">
          <mxGeometry x="520" y="400" width="120" height="60" as="geometry" />
        </mxCell>
        <mxCell id="gGHkiygS4o6kzGzx52wJ-5" value="" style="endArrow=open;html=1;rounded=1;strokeColor=#FF3333;endFill=0;edgeStyle=orthogonalEdgeStyle;entryX=1;entryY=0.5;entryDx=0;entryDy=0;curved=0;exitX=0;exitY=0.5;exitDx=0;exitDy=0;" parent="1" source="LFXLNwLVuVDGuN5qB1EF-16" target="gGHkiygS4o6kzGzx52wJ-1" edge="1">
          <mxGeometry relative="1" as="geometry">
            <mxPoint x="610" y="210" as="sourcePoint" />
            <mxPoint x="770" y="210" as="targetPoint" />
            <Array as="points" />
          </mxGeometry>
        </mxCell>
        <mxCell id="gGHkiygS4o6kzGzx52wJ-6" value="Оплаченный заказ начинают&lt;br&gt;&amp;nbsp;собирать на складе" style="edgeLabel;resizable=0;html=1;;align=center;verticalAlign=middle;labelBackgroundColor=none;" parent="gGHkiygS4o6kzGzx52wJ-5" connectable="0" vertex="1">
          <mxGeometry relative="1" as="geometry">
            <mxPoint y="-15" as="offset" />
          </mxGeometry>
        </mxCell>
        <mxCell id="gGHkiygS4o6kzGzx52wJ-7" value="" style="endArrow=open;html=1;rounded=1;strokeColor=#FF3333;endFill=0;edgeStyle=orthogonalEdgeStyle;entryX=1;entryY=0.5;entryDx=0;entryDy=0;curved=0;exitX=0;exitY=0.5;exitDx=0;exitDy=0;" parent="1" source="gGHkiygS4o6kzGzx52wJ-1" target="gGHkiygS4o6kzGzx52wJ-2" edge="1">
          <mxGeometry relative="1" as="geometry">
            <mxPoint x="810" y="300" as="sourcePoint" />
            <mxPoint x="650" y="300" as="targetPoint" />
            <Array as="points" />
          </mxGeometry>
        </mxCell>
        <mxCell id="gGHkiygS4o6kzGzx52wJ-8" value="Заказ собран на складе" style="edgeLabel;resizable=0;html=1;;align=center;verticalAlign=middle;labelBackgroundColor=none;" parent="gGHkiygS4o6kzGzx52wJ-7" connectable="0" vertex="1">
          <mxGeometry relative="1" as="geometry">
            <mxPoint y="-15" as="offset" />
          </mxGeometry>
        </mxCell>
        <mxCell id="gGHkiygS4o6kzGzx52wJ-9" value="" style="endArrow=open;html=1;rounded=1;strokeColor=#FF3333;endFill=0;edgeStyle=orthogonalEdgeStyle;exitX=0.5;exitY=1;exitDx=0;exitDy=0;entryX=0.5;entryY=0;entryDx=0;entryDy=0;curved=0;" parent="1" source="gGHkiygS4o6kzGzx52wJ-2" target="gGHkiygS4o6kzGzx52wJ-3" edge="1">
          <mxGeometry relative="1" as="geometry">
            <mxPoint x="410" y="345" as="sourcePoint" />
            <mxPoint x="410" y="425" as="targetPoint" />
            <Array as="points" />
          </mxGeometry>
        </mxCell>
        <mxCell id="gGHkiygS4o6kzGzx52wJ-10" value="Собранный заказ&lt;br&gt;отгрузили и отправли&lt;br&gt;к клиенту" style="edgeLabel;resizable=0;html=1;;align=center;verticalAlign=middle;labelBackgroundColor=none;" parent="gGHkiygS4o6kzGzx52wJ-9" connectable="0" vertex="1">
          <mxGeometry relative="1" as="geometry">
            <mxPoint x="-70" as="offset" />
          </mxGeometry>
        </mxCell>
        <mxCell id="gGHkiygS4o6kzGzx52wJ-11" value="" style="endArrow=open;html=1;rounded=1;strokeColor=#FF3333;endFill=0;edgeStyle=orthogonalEdgeStyle;exitX=1;exitY=0.5;exitDx=0;exitDy=0;entryX=0;entryY=0.5;entryDx=0;entryDy=0;curved=0;" parent="1" source="gGHkiygS4o6kzGzx52wJ-3" target="gGHkiygS4o6kzGzx52wJ-4" edge="1">
          <mxGeometry relative="1" as="geometry">
            <mxPoint x="390" y="370" as="sourcePoint" />
            <mxPoint x="550" y="370" as="targetPoint" />
            <Array as="points">
              <mxPoint x="430" y="430" />
              <mxPoint x="430" y="430" />
            </Array>
          </mxGeometry>
        </mxCell>
        <mxCell id="gGHkiygS4o6kzGzx52wJ-12" value="Заказ приехал и&amp;nbsp;&lt;br&gt;и готов к выдаче" style="edgeLabel;resizable=0;html=1;;align=center;verticalAlign=middle;labelBackgroundColor=none;" parent="gGHkiygS4o6kzGzx52wJ-11" connectable="0" vertex="1">
          <mxGeometry relative="1" as="geometry">
            <mxPoint y="-15" as="offset" />
          </mxGeometry>
        </mxCell>
        <mxCell id="gGHkiygS4o6kzGzx52wJ-13" value="Выдан" style="rounded=1;whiteSpace=wrap;html=1;arcSize=24;fillColor=#ffffc0;strokeColor=#ff0000;shadow=0;comic=0;labelBackgroundColor=none;fontFamily=Verdana;fontSize=12;fontColor=#000000;align=center;" parent="1" vertex="1">
          <mxGeometry x="800" y="400" width="120" height="60" as="geometry" />
        </mxCell>
        <mxCell id="gGHkiygS4o6kzGzx52wJ-14" value="" style="endArrow=open;html=1;rounded=1;strokeColor=#FF3333;endFill=0;edgeStyle=orthogonalEdgeStyle;exitX=1;exitY=0.5;exitDx=0;exitDy=0;entryX=0;entryY=0.5;entryDx=0;entryDy=0;curved=0;" parent="1" source="gGHkiygS4o6kzGzx52wJ-4" target="gGHkiygS4o6kzGzx52wJ-13" edge="1">
          <mxGeometry relative="1" as="geometry">
            <mxPoint x="660" y="480" as="sourcePoint" />
            <mxPoint x="820" y="480" as="targetPoint" />
            <Array as="points">
              <mxPoint x="720" y="430" />
              <mxPoint x="720" y="430" />
            </Array>
          </mxGeometry>
        </mxCell>
        <mxCell id="gGHkiygS4o6kzGzx52wJ-15" value="Заказ выдали клиенту" style="edgeLabel;resizable=0;html=1;;align=center;verticalAlign=middle;labelBackgroundColor=none;" parent="gGHkiygS4o6kzGzx52wJ-14" connectable="0" vertex="1">
          <mxGeometry relative="1" as="geometry">
            <mxPoint y="-15" as="offset" />
          </mxGeometry>
        </mxCell>
        <mxCell id="gGHkiygS4o6kzGzx52wJ-16" value="Отменён" style="rounded=1;whiteSpace=wrap;html=1;arcSize=24;fillColor=#ffffc0;strokeColor=#ff0000;shadow=0;comic=0;labelBackgroundColor=none;fontFamily=Verdana;fontSize=12;fontColor=#000000;align=center;" parent="1" vertex="1">
          <mxGeometry x="1080" y="120" width="120" height="60" as="geometry" />
        </mxCell>
        <mxCell id="gGHkiygS4o6kzGzx52wJ-17" value="" style="endArrow=open;html=1;rounded=1;strokeColor=#FF3333;endFill=0;edgeStyle=orthogonalEdgeStyle;entryX=0;entryY=0.5;entryDx=0;entryDy=0;curved=0;exitX=1;exitY=0.5;exitDx=0;exitDy=0;" parent="1" source="LFXLNwLVuVDGuN5qB1EF-6" target="gGHkiygS4o6kzGzx52wJ-16" edge="1">
          <mxGeometry relative="1" as="geometry">
            <mxPoint x="1130" y="270" as="sourcePoint" />
            <mxPoint x="1290" y="270" as="targetPoint" />
            <Array as="points" />
          </mxGeometry>
        </mxCell>
        <mxCell id="gGHkiygS4o6kzGzx52wJ-18" value="Если пользователь не оплатил&lt;br&gt;заказ в течнии 7 дней, то&lt;br&gt;заказ автоматически&amp;nbsp;&lt;br&gt;отменяется" style="edgeLabel;resizable=0;html=1;;align=center;verticalAlign=middle;labelBackgroundColor=none;" parent="gGHkiygS4o6kzGzx52wJ-17" connectable="0" vertex="1">
          <mxGeometry relative="1" as="geometry">
            <mxPoint y="-30" as="offset" />
          </mxGeometry>
        </mxCell>
        <mxCell id="gGHkiygS4o6kzGzx52wJ-19" value="" style="ellipse;html=1;shape=endState;fillColor=#000000;strokeColor=#ff0000;" parent="1" vertex="1">
          <mxGeometry x="285" y="-90" width="30" height="30" as="geometry" />
        </mxCell>
        <mxCell id="gGHkiygS4o6kzGzx52wJ-20" value="" style="endArrow=open;html=1;rounded=1;strokeColor=#FF3333;endFill=0;edgeStyle=orthogonalEdgeStyle;exitX=0.5;exitY=0;exitDx=0;exitDy=0;entryX=0.5;entryY=1;entryDx=0;entryDy=0;curved=0;" parent="1" source="LFXLNwLVuVDGuN5qB1EF-9" target="gGHkiygS4o6kzGzx52wJ-19" edge="1">
          <mxGeometry relative="1" as="geometry">
            <mxPoint x="430" y="40" as="sourcePoint" />
            <mxPoint x="430" y="-40" as="targetPoint" />
            <Array as="points" />
          </mxGeometry>
        </mxCell>
        <mxCell id="gGHkiygS4o6kzGzx52wJ-22" value="" style="ellipse;html=1;shape=endState;fillColor=#000000;strokeColor=#ff0000;" parent="1" vertex="1">
          <mxGeometry x="565" y="-90" width="30" height="30" as="geometry" />
        </mxCell>
        <mxCell id="gGHkiygS4o6kzGzx52wJ-23" value="" style="endArrow=open;html=1;rounded=1;strokeColor=#FF3333;endFill=0;edgeStyle=orthogonalEdgeStyle;exitX=0.5;exitY=0;exitDx=0;exitDy=0;entryX=0.5;entryY=1;entryDx=0;entryDy=0;curved=0;" parent="1" target="gGHkiygS4o6kzGzx52wJ-22" edge="1">
          <mxGeometry relative="1" as="geometry">
            <mxPoint x="580" y="-20" as="sourcePoint" />
            <mxPoint x="710" y="-40" as="targetPoint" />
            <Array as="points" />
          </mxGeometry>
        </mxCell>
        <mxCell id="gGHkiygS4o6kzGzx52wJ-24" value="" style="ellipse;html=1;shape=endState;fillColor=#000000;strokeColor=#ff0000;" parent="1" vertex="1">
          <mxGeometry x="1125" y="220" width="30" height="30" as="geometry" />
        </mxCell>
        <mxCell id="gGHkiygS4o6kzGzx52wJ-25" value="" style="endArrow=open;html=1;rounded=1;strokeColor=#FF3333;endFill=0;edgeStyle=orthogonalEdgeStyle;exitX=0.5;exitY=1;exitDx=0;exitDy=0;entryX=0.5;entryY=0;entryDx=0;entryDy=0;curved=0;" parent="1" source="gGHkiygS4o6kzGzx52wJ-16" target="gGHkiygS4o6kzGzx52wJ-24" edge="1">
          <mxGeometry relative="1" as="geometry">
            <mxPoint x="1200" y="240" as="sourcePoint" />
            <mxPoint x="1200" y="200" as="targetPoint" />
            <Array as="points" />
          </mxGeometry>
        </mxCell>
        <mxCell id="gGHkiygS4o6kzGzx52wJ-26" value="" style="ellipse;html=1;shape=endState;fillColor=#000000;strokeColor=#ff0000;" parent="1" vertex="1">
          <mxGeometry x="960" y="415" width="30" height="30" as="geometry" />
        </mxCell>
        <mxCell id="gGHkiygS4o6kzGzx52wJ-27" value="" style="endArrow=open;html=1;rounded=1;strokeColor=#FF3333;endFill=0;edgeStyle=orthogonalEdgeStyle;exitX=1;exitY=0.5;exitDx=0;exitDy=0;curved=0;" parent="1" source="gGHkiygS4o6kzGzx52wJ-13" edge="1">
          <mxGeometry relative="1" as="geometry">
            <mxPoint x="950" y="340" as="sourcePoint" />
            <mxPoint x="960" y="430" as="targetPoint" />
            <Array as="points" />
          </mxGeometry>
        </mxCell>
        <mxCell id="gGHkiygS4o6kzGzx52wJ-31" value="Отменён" style="rounded=1;whiteSpace=wrap;html=1;arcSize=24;fillColor=#ffffc0;strokeColor=#ff0000;shadow=0;comic=0;labelBackgroundColor=none;fontFamily=Verdana;fontSize=12;fontColor=#000000;align=center;" parent="1" vertex="1">
          <mxGeometry x="520" y="540" width="120" height="60" as="geometry" />
        </mxCell>
        <mxCell id="gGHkiygS4o6kzGzx52wJ-32" value="" style="endArrow=open;html=1;rounded=1;strokeColor=#FF3333;endFill=0;edgeStyle=orthogonalEdgeStyle;curved=0;exitX=0.5;exitY=1;exitDx=0;exitDy=0;entryX=0.5;entryY=0;entryDx=0;entryDy=0;" parent="1" source="gGHkiygS4o6kzGzx52wJ-4" target="gGHkiygS4o6kzGzx52wJ-31" edge="1">
          <mxGeometry relative="1" as="geometry">
            <mxPoint x="609.9999999999999" y="440" as="sourcePoint" />
            <mxPoint x="609.9999999999999" y="520" as="targetPoint" />
            <Array as="points">
              <mxPoint x="580" y="510" />
              <mxPoint x="580" y="510" />
            </Array>
          </mxGeometry>
        </mxCell>
        <mxCell id="gGHkiygS4o6kzGzx52wJ-33" value="Если пользователь в течении&lt;br&gt;&amp;nbsp;14 дней не забрал заказ, то он&lt;br&gt;автоматически отменяется&lt;br&gt;и отправляется на склад" style="edgeLabel;resizable=0;html=1;;align=center;verticalAlign=middle;labelBackgroundColor=none;" parent="gGHkiygS4o6kzGzx52wJ-32" connectable="0" vertex="1">
          <mxGeometry relative="1" as="geometry">
            <mxPoint x="90" as="offset" />
          </mxGeometry>
        </mxCell>
        <mxCell id="gGHkiygS4o6kzGzx52wJ-34" value="" style="ellipse;html=1;shape=endState;fillColor=#000000;strokeColor=#ff0000;" parent="1" vertex="1">
          <mxGeometry x="680" y="555" width="30" height="30" as="geometry" />
        </mxCell>
        <mxCell id="gGHkiygS4o6kzGzx52wJ-35" value="" style="endArrow=open;html=1;rounded=1;strokeColor=#FF3333;endFill=0;edgeStyle=orthogonalEdgeStyle;exitX=1;exitY=0.5;exitDx=0;exitDy=0;curved=0;entryX=0;entryY=0.5;entryDx=0;entryDy=0;" parent="1" source="gGHkiygS4o6kzGzx52wJ-31" target="gGHkiygS4o6kzGzx52wJ-34" edge="1">
          <mxGeometry relative="1" as="geometry">
            <mxPoint x="680" y="585" as="sourcePoint" />
            <mxPoint x="720" y="585" as="targetPoint" />
            <Array as="points" />
          </mxGeometry>
        </mxCell>
      </root>
    </mxGraphModel>
  </diagram>
</mxfile>
